<svg xmlns="http://www.w3.org/2000/svg" xmlns:xlink="http://www.w3.org/1999/xlink" width="500" zoomAndPan="magnify" viewBox="0 0 375 374.999991" height="500" preserveAspectRatio="xMidYMid meet" version="1.0"><defs><g/><clipPath id="b14d0d09b7"><path d="M 12 111 L 365 111 L 365 316 L 12 316 Z M 12 111 " clip-rule="nonzero"/></clipPath><clipPath id="02b7a50f97"><path d="M 69.550781 18.460938 L 388.636719 141.542969 L 305.773438 356.363281 L -13.3125 233.285156 Z M 69.550781 18.460938 " clip-rule="nonzero"/></clipPath><clipPath id="4eb386858b"><path d="M 69.550781 18.460938 L 388.636719 141.542969 L 305.773438 356.363281 L -13.3125 233.285156 Z M 69.550781 18.460938 " clip-rule="nonzero"/></clipPath><clipPath id="3435f9d062"><path d="M 361.851562 190.515625 C 369.785156 163.558594 356.234375 134.40625 330.644531 122.941406 C 310.886719 114.015625 289.019531 117.328125 273.089844 129.304688 C 265.148438 135.234375 254.164062 134.765625 246.449219 128.457031 C 240.507812 123.554688 233.550781 119.417969 225.976562 116.5 C 203.761719 107.929688 179.953125 110.636719 160.800781 121.953125 C 149.699219 128.546875 135.929688 128.164062 124.792969 121.695312 C 119.960938 118.816406 114.628906 116.46875 109.058594 114.753906 C 72.917969 103.570312 33.75 121.664062 18.652344 156.296875 C 1.449219 195.625 20.675781 240.882812 60.308594 256.171875 C 76.71875 262.5 93.929688 262.613281 109.394531 257.851562 C 125.039062 253.007812 141.753906 260.039062 149.171875 274.644531 C 157.847656 291.621094 172.96875 305.425781 192.792969 311.914062 C 229.242188 323.796875 269.441406 305.664062 284.609375 270.480469 C 286.339844 266.363281 287.722656 262.402344 288.777344 258.167969 C 292.21875 243.984375 303.339844 233.191406 317.730469 230.476562 C 337.855469 226.785156 355.539062 212.148438 361.851562 190.515625 Z M 361.851562 190.515625 " clip-rule="nonzero"/></clipPath><clipPath id="e1ae2cb3ad"><path d="M 118 84 L 151 84 L 151 117 L 118 117 Z M 118 84 " clip-rule="nonzero"/></clipPath><clipPath id="1a60d7bb6e"><path d="M 69.550781 18.460938 L 388.636719 141.542969 L 305.773438 356.363281 L -13.3125 233.285156 Z M 69.550781 18.460938 " clip-rule="nonzero"/></clipPath><clipPath id="55d59146f0"><path d="M 69.550781 18.460938 L 388.636719 141.542969 L 305.773438 356.363281 L -13.3125 233.285156 Z M 69.550781 18.460938 " clip-rule="nonzero"/></clipPath><clipPath id="a4726f6ec4"><path d="M 149.703125 106.363281 C 149.511719 106.855469 149.300781 107.335938 149.0625 107.808594 C 148.824219 108.277344 148.566406 108.734375 148.285156 109.183594 C 148.003906 109.628906 147.699219 110.058594 147.375 110.472656 C 147.050781 110.890625 146.707031 111.289062 146.34375 111.667969 C 145.980469 112.050781 145.597656 112.414062 145.199219 112.757812 C 144.800781 113.101562 144.382812 113.425781 143.953125 113.730469 C 143.523438 114.035156 143.078125 114.316406 142.617188 114.578125 C 142.160156 114.835938 141.6875 115.074219 141.207031 115.285156 C 140.726562 115.5 140.234375 115.691406 139.734375 115.855469 C 139.234375 116.019531 138.726562 116.160156 138.210938 116.277344 C 137.695312 116.390625 137.175781 116.480469 136.652344 116.546875 C 136.128906 116.609375 135.605469 116.648438 135.078125 116.664062 C 134.550781 116.675781 134.023438 116.664062 133.5 116.625 C 132.972656 116.585938 132.449219 116.519531 131.929688 116.429688 C 131.410156 116.339844 130.898438 116.226562 130.390625 116.085938 C 129.882812 115.945312 129.382812 115.777344 128.890625 115.589844 C 128.398438 115.398438 127.917969 115.1875 127.445312 114.949219 C 126.972656 114.710938 126.515625 114.453125 126.070312 114.171875 C 125.625 113.886719 125.195312 113.585938 124.777344 113.261719 C 124.363281 112.9375 123.964844 112.59375 123.582031 112.230469 C 123.199219 111.863281 122.835938 111.484375 122.492188 111.085938 C 122.148438 110.683594 121.824219 110.269531 121.519531 109.839844 C 121.21875 109.40625 120.9375 108.964844 120.675781 108.503906 C 120.417969 108.046875 120.179688 107.574219 119.964844 107.09375 C 119.753906 106.609375 119.5625 106.121094 119.398438 105.621094 C 119.230469 105.117188 119.089844 104.609375 118.976562 104.097656 C 118.859375 103.582031 118.769531 103.0625 118.707031 102.539062 C 118.640625 102.015625 118.601562 101.492188 118.589844 100.964844 C 118.578125 100.4375 118.589844 99.910156 118.628906 99.386719 C 118.667969 98.859375 118.730469 98.335938 118.820312 97.816406 C 118.910156 97.296875 119.027344 96.785156 119.167969 96.277344 C 119.308594 95.769531 119.472656 95.269531 119.664062 94.777344 C 119.851562 94.285156 120.066406 93.800781 120.304688 93.332031 C 120.539062 92.859375 120.800781 92.402344 121.082031 91.957031 C 121.363281 91.511719 121.667969 91.082031 121.992188 90.664062 C 122.316406 90.25 122.660156 89.851562 123.023438 89.46875 C 123.386719 89.085938 123.769531 88.722656 124.167969 88.378906 C 124.566406 88.035156 124.980469 87.710938 125.414062 87.40625 C 125.84375 87.105469 126.289062 86.820312 126.746094 86.5625 C 127.207031 86.300781 127.675781 86.066406 128.160156 85.851562 C 128.640625 85.636719 129.132812 85.449219 129.632812 85.285156 C 130.132812 85.117188 130.640625 84.976562 131.15625 84.863281 C 131.671875 84.746094 132.1875 84.65625 132.710938 84.59375 C 133.234375 84.527344 133.761719 84.488281 134.289062 84.476562 C 134.816406 84.460938 135.339844 84.476562 135.867188 84.515625 C 136.394531 84.554688 136.914062 84.617188 137.433594 84.707031 C 137.953125 84.796875 138.46875 84.914062 138.976562 85.054688 C 139.484375 85.195312 139.984375 85.359375 140.476562 85.550781 C 140.96875 85.738281 141.449219 85.953125 141.921875 86.191406 C 142.390625 86.425781 142.851562 86.6875 143.296875 86.96875 C 143.742188 87.25 144.171875 87.554688 144.585938 87.878906 C 145.003906 88.203125 145.402344 88.546875 145.785156 88.910156 C 146.164062 89.273438 146.527344 89.65625 146.871094 90.054688 C 147.21875 90.453125 147.542969 90.867188 147.84375 91.300781 C 148.148438 91.730469 148.429688 92.175781 148.691406 92.632812 C 148.949219 93.09375 149.1875 93.5625 149.402344 94.046875 C 149.613281 94.527344 149.804688 95.019531 149.96875 95.519531 C 150.132812 96.019531 150.273438 96.527344 150.390625 97.042969 C 150.507812 97.554688 150.597656 98.074219 150.660156 98.597656 C 150.726562 99.121094 150.765625 99.648438 150.777344 100.175781 C 150.789062 100.699219 150.777344 101.226562 150.738281 101.753906 C 150.699219 102.277344 150.636719 102.800781 150.542969 103.320312 C 150.453125 103.839844 150.339844 104.355469 150.199219 104.863281 C 150.058594 105.371094 149.894531 105.871094 149.703125 106.363281 Z M 149.703125 106.363281 " clip-rule="nonzero"/></clipPath><clipPath id="6dd80840e0"><path d="M 222 81 L 242 81 L 242 102 L 222 102 Z M 222 81 " clip-rule="nonzero"/></clipPath><clipPath id="de2dfba901"><path d="M 69.550781 18.460938 L 388.636719 141.542969 L 305.773438 356.363281 L -13.3125 233.285156 Z M 69.550781 18.460938 " clip-rule="nonzero"/></clipPath><clipPath id="556f3f2d5c"><path d="M 69.550781 18.460938 L 388.636719 141.542969 L 305.773438 356.363281 L -13.3125 233.285156 Z M 69.550781 18.460938 " clip-rule="nonzero"/></clipPath><clipPath id="cf1606f643"><path d="M 241.234375 94.980469 C 241.007812 95.570312 240.726562 96.128906 240.390625 96.664062 C 240.050781 97.195312 239.667969 97.691406 239.230469 98.148438 C 238.796875 98.601562 238.320312 99.011719 237.804688 99.375 C 237.289062 99.738281 236.742188 100.050781 236.167969 100.304688 C 235.589844 100.558594 234.996094 100.757812 234.378906 100.894531 C 233.765625 101.035156 233.140625 101.109375 232.511719 101.125 C 231.878906 101.140625 231.253906 101.09375 230.632812 100.988281 C 230.011719 100.878906 229.40625 100.710938 228.816406 100.484375 C 228.230469 100.257812 227.667969 99.976562 227.136719 99.640625 C 226.601562 99.300781 226.109375 98.914062 225.652344 98.480469 C 225.195312 98.046875 224.785156 97.570312 224.421875 97.054688 C 224.058594 96.539062 223.75 95.992188 223.492188 95.417969 C 223.238281 94.839844 223.042969 94.242188 222.902344 93.628906 C 222.765625 93.011719 222.6875 92.390625 222.671875 91.757812 C 222.65625 91.128906 222.703125 90.503906 222.8125 89.882812 C 222.917969 89.261719 223.085938 88.65625 223.3125 88.066406 C 223.539062 87.480469 223.824219 86.917969 224.160156 86.386719 C 224.496094 85.851562 224.882812 85.359375 225.316406 84.902344 C 225.753906 84.445312 226.226562 84.035156 226.742188 83.671875 C 227.257812 83.308594 227.804688 83 228.382812 82.742188 C 228.957031 82.488281 229.554688 82.289062 230.171875 82.152344 C 230.785156 82.015625 231.410156 81.9375 232.039062 81.921875 C 232.667969 81.90625 233.296875 81.953125 233.917969 82.058594 C 234.539062 82.167969 235.144531 82.335938 235.730469 82.5625 C 236.320312 82.789062 236.878906 83.070312 237.414062 83.410156 C 237.945312 83.746094 238.441406 84.132812 238.898438 84.566406 C 239.355469 85.003906 239.765625 85.476562 240.128906 85.992188 C 240.492188 86.507812 240.800781 87.054688 241.054688 87.632812 C 241.3125 88.207031 241.507812 88.804688 241.644531 89.417969 C 241.785156 90.035156 241.863281 90.65625 241.875 91.289062 C 241.890625 91.917969 241.847656 92.542969 241.738281 93.164062 C 241.628906 93.789062 241.464844 94.390625 241.234375 94.980469 Z M 241.234375 94.980469 " clip-rule="nonzero"/></clipPath><clipPath id="cedb9a5e26"><path d="M 308 251 L 339 251 L 339 282 L 308 282 Z M 308 251 " clip-rule="nonzero"/></clipPath><clipPath id="98ae14550a"><path d="M 69.550781 18.460938 L 388.636719 141.542969 L 305.773438 356.363281 L -13.3125 233.285156 Z M 69.550781 18.460938 " clip-rule="nonzero"/></clipPath><clipPath id="dd1610f90e"><path d="M 69.550781 18.460938 L 388.636719 141.542969 L 305.773438 356.363281 L -13.3125 233.285156 Z M 69.550781 18.460938 " clip-rule="nonzero"/></clipPath><clipPath id="2c24bfdf53"><path d="M 337.910156 271.757812 C 337.550781 272.683594 337.105469 273.570312 336.574219 274.410156 C 336.042969 275.25 335.433594 276.03125 334.746094 276.75 C 334.0625 277.472656 333.3125 278.117188 332.5 278.691406 C 331.683594 279.265625 330.824219 279.753906 329.914062 280.15625 C 329.003906 280.558594 328.066406 280.867188 327.09375 281.085938 C 326.125 281.304688 325.140625 281.425781 324.144531 281.449219 C 323.152344 281.476562 322.164062 281.402344 321.183594 281.230469 C 320.203125 281.0625 319.25 280.796875 318.320312 280.441406 C 317.394531 280.082031 316.507812 279.636719 315.667969 279.105469 C 314.828125 278.574219 314.046875 277.964844 313.328125 277.277344 C 312.605469 276.589844 311.960938 275.839844 311.386719 275.027344 C 310.8125 274.214844 310.324219 273.351562 309.921875 272.445312 C 309.519531 271.535156 309.207031 270.59375 308.992188 269.625 C 308.773438 268.652344 308.652344 267.671875 308.628906 266.675781 C 308.601562 265.679688 308.675781 264.695312 308.84375 263.714844 C 309.015625 262.734375 309.28125 261.777344 309.636719 260.851562 C 309.996094 259.921875 310.441406 259.039062 310.972656 258.199219 C 311.503906 257.355469 312.113281 256.578125 312.800781 255.855469 C 313.488281 255.136719 314.234375 254.488281 315.050781 253.917969 C 315.863281 253.34375 316.722656 252.855469 317.632812 252.453125 C 318.542969 252.050781 319.484375 251.738281 320.453125 251.519531 C 321.425781 251.300781 322.40625 251.179688 323.402344 251.15625 C 324.398438 251.132812 325.382812 251.207031 326.363281 251.375 C 327.34375 251.546875 328.296875 251.808594 329.226562 252.167969 C 330.15625 252.523438 331.039062 252.96875 331.878906 253.503906 C 332.71875 254.035156 333.5 254.644531 334.222656 255.328125 C 334.941406 256.015625 335.589844 256.765625 336.160156 257.578125 C 336.734375 258.390625 337.222656 259.253906 337.625 260.164062 C 338.027344 261.074219 338.339844 262.011719 338.558594 262.984375 C 338.777344 263.953125 338.898438 264.9375 338.921875 265.929688 C 338.945312 266.925781 338.871094 267.914062 338.703125 268.894531 C 338.53125 269.875 338.269531 270.828125 337.910156 271.757812 Z M 337.910156 271.757812 " clip-rule="nonzero"/></clipPath><clipPath id="28cccdae57"><rect x="0" width="131" y="0" height="124"/></clipPath><clipPath id="1fcfab7090"><rect x="0" width="255" y="0" height="158"/></clipPath><clipPath id="7cb1efbdfb"><rect x="0" width="107" y="0" height="82"/></clipPath></defs><g clip-path="url(#b14d0d09b7)"><g clip-path="url(#02b7a50f97)"><g clip-path="url(#4eb386858b)"><g clip-path="url(#3435f9d062)"><path fill="#4b5ae4" d="M 49.15625 -20.105469 L -72.496094 295.277344 L 322.082031 447.472656 L 443.730469 132.089844 Z M 49.15625 -20.105469 " fill-opacity="1" fill-rule="nonzero"/></g></g></g></g><g clip-path="url(#e1ae2cb3ad)"><g clip-path="url(#1a60d7bb6e)"><g clip-path="url(#55d59146f0)"><g clip-path="url(#a4726f6ec4)"><path fill="#4b5ae4" d="M 122.75 73.648438 L 107.761719 112.503906 L 146.617188 127.492188 L 161.605469 88.632812 Z M 122.75 73.648438 " fill-opacity="1" fill-rule="nonzero"/></g></g></g></g><g clip-path="url(#6dd80840e0)"><g clip-path="url(#de2dfba901)"><g clip-path="url(#556f3f2d5c)"><g clip-path="url(#cf1606f643)"><path fill="#4b5ae4" d="M 225.148438 75.449219 L 216.199219 98.648438 L 239.402344 107.601562 L 248.351562 84.398438 Z M 225.148438 75.449219 " fill-opacity="1" fill-rule="nonzero"/></g></g></g></g><g clip-path="url(#cedb9a5e26)"><g clip-path="url(#98ae14550a)"><g clip-path="url(#dd1610f90e)"><g clip-path="url(#2c24bfdf53)"><path fill="#4b5ae4" d="M 312.53125 240.945312 L 298.414062 277.546875 L 335.015625 291.664062 L 349.132812 255.0625 Z M 312.53125 240.945312 " fill-opacity="1" fill-rule="nonzero"/></g></g></g></g><g transform="matrix(1, 0, 0, 1, 30, 132)"><g clip-path="url(#28cccdae57)"><g fill="#fcfdf2" fill-opacity="1"><g transform="translate(18.771488, 93.509369)"><g><path d="M 2.390625 -13.625 C -0.148438 -17.25 -2.28125 -21.335938 -4 -25.890625 C -5.726562 -30.453125 -7.035156 -35.140625 -7.921875 -39.953125 C -8.804688 -44.765625 -9.25 -49.445312 -9.25 -54 C -9.25 -58.5625 -8.789062 -62.644531 -7.875 -66.25 C -7.363281 -68.226562 -6.488281 -70.15625 -5.25 -72.03125 C -4.019531 -73.90625 -2.539062 -75.519531 -0.8125 -76.875 C 0.914062 -78.226562 2.769531 -79.128906 4.75 -79.578125 C 5.46875 -79.742188 5.925781 -79.847656 6.125 -79.890625 C 6.320312 -79.941406 6.519531 -79.988281 6.71875 -80.03125 C 6.914062 -80.070312 7.375 -80.175781 8.09375 -80.34375 C 11.445312 -81.101562 14.476562 -81.238281 17.1875 -80.75 C 19.894531 -80.257812 22.046875 -79.296875 23.640625 -77.859375 C 25.242188 -76.429688 25.96875 -74.695312 25.8125 -72.65625 C 25.769531 -71.332031 25.132812 -70.320312 23.90625 -69.625 C 22.6875 -68.9375 21.21875 -68.394531 19.5 -68 C 18.25 -67.71875 17.003906 -67.488281 15.765625 -67.3125 C 14.535156 -67.132812 13.390625 -66.925781 12.328125 -66.6875 C 11.421875 -66.476562 10.671875 -66.222656 10.078125 -65.921875 C 9.492188 -65.617188 9.257812 -65.203125 9.375 -64.671875 C 9.5 -63.796875 10.1875 -63.347656 11.4375 -63.328125 C 12.6875 -63.304688 14.1875 -63.398438 15.9375 -63.609375 C 17.6875 -63.828125 19.472656 -63.9375 21.296875 -63.9375 C 23.128906 -63.945312 24.753906 -63.5625 26.171875 -62.78125 C 27.597656 -62 28.550781 -60.5625 29.03125 -58.46875 C 29.4375 -56.6875 29.320312 -55.289062 28.6875 -54.28125 C 28.050781 -53.269531 27.085938 -52.476562 25.796875 -51.90625 C 24.515625 -51.332031 23.144531 -50.898438 21.6875 -50.609375 C 20.238281 -50.316406 18.847656 -49.984375 17.515625 -49.609375 C 16.191406 -49.242188 15.171875 -48.722656 14.453125 -48.046875 C 13.742188 -47.367188 13.53125 -46.40625 13.8125 -45.15625 C 14.363281 -42.71875 15.660156 -40.929688 17.703125 -39.796875 C 19.753906 -38.671875 22.296875 -38.453125 25.328125 -39.140625 C 25.585938 -39.203125 25.863281 -39.265625 26.15625 -39.328125 C 26.457031 -39.398438 26.734375 -39.5 26.984375 -39.625 C 27.117188 -39.65625 27.285156 -39.691406 27.484375 -39.734375 C 27.679688 -39.785156 27.847656 -39.828125 27.984375 -39.859375 C 30.472656 -40.421875 32.742188 -40.125 34.796875 -38.96875 C 36.859375 -37.820312 38.554688 -36.132812 39.890625 -33.90625 C 41.234375 -31.675781 42.128906 -29.179688 42.578125 -26.421875 C 43.035156 -23.660156 42.910156 -20.9375 42.203125 -18.25 C 41.503906 -15.5625 40.144531 -13.175781 38.125 -11.09375 C 36.113281 -9.007812 33.269531 -7.550781 29.59375 -6.71875 L 20.421875 -4.640625 C 18.773438 -4.265625 16.828125 -4.390625 14.578125 -5.015625 C 12.328125 -5.648438 10.113281 -6.707031 7.9375 -8.1875 C 5.769531 -9.664062 3.921875 -11.476562 2.390625 -13.625 Z M 2.390625 -13.625 "/></g></g></g><g fill="#fcfdf2" fill-opacity="1"><g transform="translate(60.729544, 83.229094)"><g><path d="M 16 2.03125 C 13.5625 0.78125 11.441406 -1.144531 9.640625 -3.75 C 7.835938 -6.363281 6.351562 -9.398438 5.1875 -12.859375 C 4.019531 -16.328125 3.21875 -19.976562 2.78125 -23.8125 C 2.351562 -27.65625 2.289062 -31.390625 2.59375 -35.015625 C 3.195312 -42.347656 4.578125 -48.578125 6.734375 -53.703125 C 8.890625 -58.835938 11.710938 -62.722656 15.203125 -65.359375 C 18.691406 -68.003906 22.625 -69.226562 27 -69.03125 C 31.175781 -68.84375 34.664062 -67.625 37.46875 -65.375 C 40.269531 -63.125 42.535156 -60.289062 44.265625 -56.875 C 46.003906 -53.457031 47.257812 -49.820312 48.03125 -45.96875 C 48.800781 -42.125 49.210938 -38.519531 49.265625 -35.15625 C 49.316406 -31.832031 49.09375 -28.410156 48.59375 -24.890625 C 48.101562 -21.378906 47.332031 -18.023438 46.28125 -14.828125 C 45.226562 -11.628906 43.882812 -8.867188 42.25 -6.546875 C 40.625 -4.234375 38.710938 -2.550781 36.515625 -1.5 C 40.828125 0.113281 44.507812 2.585938 47.5625 5.921875 C 50.625 9.265625 52.710938 12.753906 53.828125 16.390625 C 54.660156 19.066406 54.609375 21.460938 53.671875 23.578125 C 52.734375 25.691406 51.273438 27.34375 49.296875 28.53125 C 47.316406 29.726562 45.210938 30.273438 42.984375 30.171875 C 41.367188 30.097656 39.789062 29.625 38.25 28.75 C 36.707031 27.875 35.367188 26.460938 34.234375 24.515625 C 33.347656 22.992188 32.789062 21.414062 32.5625 19.78125 C 32.332031 18.15625 32.1875 16.566406 32.125 15.015625 C 32.0625 13.460938 31.84375 11.984375 31.46875 10.578125 C 31.09375 9.179688 30.285156 7.945312 29.046875 6.875 C 27.679688 5.664062 26.203125 4.820312 24.609375 4.34375 C 23.015625 3.863281 21.476562 3.503906 20 3.265625 C 18.53125 3.035156 17.195312 2.625 16 2.03125 Z M 19.609375 -44.46875 C 19.378906 -42.25 19.421875 -40.101562 19.734375 -38.03125 C 20.046875 -35.957031 20.726562 -34.222656 21.78125 -32.828125 C 22.832031 -31.441406 24.257812 -30.671875 26.0625 -30.515625 C 27.75 -30.378906 29.09375 -30.929688 30.09375 -32.171875 C 31.09375 -33.410156 31.804688 -35.03125 32.234375 -37.03125 C 32.660156 -39.03125 32.859375 -41.175781 32.828125 -43.46875 C 32.796875 -45.769531 32.523438 -47.957031 32.015625 -50.03125 C 31.503906 -52.113281 30.820312 -53.847656 29.96875 -55.234375 C 29.113281 -56.628906 28.082031 -57.351562 26.875 -57.40625 C 25.738281 -57.519531 24.648438 -56.941406 23.609375 -55.671875 C 22.578125 -54.410156 21.710938 -52.785156 21.015625 -50.796875 C 20.316406 -48.804688 19.847656 -46.695312 19.609375 -44.46875 Z M 19.609375 -44.46875 "/></g></g></g></g></g><g transform="matrix(1, 0, 0, 1, 120, 119)"><g clip-path="url(#1fcfab7090)"><g fill="#fcfdf2" fill-opacity="1"><g transform="translate(20.324186, 105.33783)"><g><path d="M 4.796875 -17.515625 C 5.128906 -21.628906 5.890625 -25.476562 7.078125 -29.0625 C 8.273438 -32.644531 9.585938 -36.0625 11.015625 -39.3125 C 12.453125 -42.570312 13.703125 -45.765625 14.765625 -48.890625 C 15.828125 -52.015625 16.390625 -55.117188 16.453125 -58.203125 C 16.492188 -61.210938 16.96875 -63.878906 17.875 -66.203125 C 18.78125 -68.523438 20.039062 -70.285156 21.65625 -71.484375 C 23.269531 -72.679688 25.132812 -73.070312 27.25 -72.65625 C 28.039062 -72.5 28.914062 -72.148438 29.875 -71.609375 C 30.832031 -71.078125 31.664062 -70.15625 32.375 -68.84375 C 33.082031 -67.539062 33.316406 -65.609375 33.078125 -63.046875 C 32.898438 -60.742188 32.550781 -58.1875 32.03125 -55.375 C 31.507812 -52.5625 30.992188 -49.6875 30.484375 -46.75 C 29.972656 -43.820312 29.609375 -41.109375 29.390625 -38.609375 C 29.179688 -36.117188 29.238281 -34.050781 29.5625 -32.40625 C 29.882812 -30.757812 30.675781 -29.8125 31.9375 -29.5625 C 33.519531 -29.25 34.910156 -30.039062 36.109375 -31.9375 C 37.304688 -33.832031 38.351562 -36.359375 39.25 -39.515625 C 40.15625 -42.671875 40.925781 -46.039062 41.5625 -49.625 C 42.195312 -53.207031 42.75 -56.535156 43.21875 -59.609375 C 43.46875 -61.140625 43.929688 -62.585938 44.609375 -63.953125 C 45.285156 -65.328125 46.226562 -66.394531 47.4375 -67.15625 C 48.65625 -67.914062 50.191406 -68.113281 52.046875 -67.75 C 54.035156 -67.351562 55.382812 -66.28125 56.09375 -64.53125 C 56.8125 -62.78125 57.164062 -60.75 57.15625 -58.4375 C 57.15625 -56.132812 56.988281 -53.882812 56.65625 -51.6875 C 56.320312 -49.488281 56.054688 -47.71875 55.859375 -46.375 C 55.367188 -42.488281 55.054688 -38.738281 54.921875 -35.125 C 54.796875 -31.507812 54.601562 -28.007812 54.34375 -24.625 C 54.09375 -21.238281 53.601562 -17.894531 52.875 -14.59375 C 52.15625 -11.289062 50.957031 -7.988281 49.28125 -4.6875 C 47.6875 -1.5 45.835938 0.878906 43.734375 2.453125 C 41.640625 4.035156 39.519531 5.046875 37.375 5.484375 C 35.226562 5.921875 33.191406 6.050781 31.265625 5.875 C 29.335938 5.695312 27.710938 5.476562 26.390625 5.21875 L 20.9375 4.140625 C 18.488281 3.648438 15.953125 2.5625 13.328125 0.875 C 10.710938 -0.800781 8.566406 -3.144531 6.890625 -6.15625 C 5.210938 -9.164062 4.515625 -12.953125 4.796875 -17.515625 Z M 4.796875 -17.515625 "/></g></g></g><g fill="#fcfdf2" fill-opacity="1"><g transform="translate(72.940157, 114.622145)"><g><path d="M 8.390625 0.296875 C 6.367188 0.222656 4.660156 -0.660156 3.265625 -2.359375 C 1.878906 -4.066406 1.234375 -6.875 1.328125 -10.78125 C 1.429688 -14.6875 2.75 -19.96875 5.28125 -26.625 C 6.539062 -29.90625 7.394531 -32.695312 7.84375 -35 C 8.300781 -37.300781 8.578125 -39.34375 8.671875 -41.125 C 8.765625 -42.914062 8.84375 -44.671875 8.90625 -46.390625 C 8.96875 -48.109375 9.164062 -49.976562 9.5 -52 C 9.675781 -53 10.25 -53.988281 11.21875 -54.96875 C 12.195312 -55.945312 13.796875 -56.398438 16.015625 -56.328125 C 17.492188 -56.273438 18.691406 -55.859375 19.609375 -55.078125 C 20.523438 -54.296875 21.171875 -53.429688 21.546875 -52.484375 C 21.992188 -51.328125 22.195312 -49.832031 22.15625 -48 C 22.125 -46.175781 22.210938 -43.910156 22.421875 -41.203125 C 22.628906 -38.503906 23.347656 -35.210938 24.578125 -31.328125 C 25.722656 -27.578125 26.71875 -23.796875 27.5625 -19.984375 C 28.40625 -16.171875 28.804688 -12.679688 28.765625 -9.515625 C 28.722656 -6.359375 27.960938 -3.84375 26.484375 -1.96875 C 25.003906 -0.09375 22.507812 0.78125 19 0.65625 Z M 15.84375 -59.96875 C 14.101562 -60.03125 12.609375 -60.640625 11.359375 -61.796875 C 10.117188 -62.953125 9.523438 -64.300781 9.578125 -65.84375 C 9.640625 -67.46875 10.328125 -68.8125 11.640625 -69.875 C 12.960938 -70.9375 14.492188 -71.4375 16.234375 -71.375 C 18.054688 -71.3125 19.585938 -70.703125 20.828125 -69.546875 C 22.078125 -68.398438 22.671875 -67.015625 22.609375 -65.390625 C 22.554688 -63.847656 21.867188 -62.539062 20.546875 -61.46875 C 19.234375 -60.40625 17.664062 -59.90625 15.84375 -59.96875 Z M 15.84375 -59.96875 "/></g></g></g><g fill="#fcfdf2" fill-opacity="1"><g transform="translate(106.076299, 116.563593)"><g><path d="M -3.34375 -54.265625 C -4.625 -54.617188 -5.613281 -55.484375 -6.3125 -56.859375 C -7.007812 -58.234375 -7.351562 -59.769531 -7.34375 -61.46875 C -7.34375 -63.164062 -6.9375 -64.769531 -6.125 -66.28125 C -5.3125 -67.789062 -4.03125 -68.898438 -2.28125 -69.609375 C -0.988281 -70.128906 0.265625 -70.523438 1.484375 -70.796875 C 2.703125 -71.066406 4.445312 -71.351562 6.71875 -71.65625 C 7.644531 -71.789062 8.644531 -71.929688 9.71875 -72.078125 C 10.789062 -72.222656 12.023438 -72.390625 13.421875 -72.578125 C 15.097656 -72.804688 16.71875 -73.046875 18.28125 -73.296875 C 19.84375 -73.546875 21.226562 -73.75 22.4375 -73.90625 C 23.375 -74.039062 24.273438 -74.164062 25.140625 -74.28125 C 26.003906 -74.40625 26.804688 -74.515625 27.546875 -74.609375 C 30.273438 -74.984375 32.585938 -75.234375 34.484375 -75.359375 C 36.378906 -75.492188 38.0625 -75.390625 39.53125 -75.046875 C 41.351562 -74.617188 42.773438 -73.640625 43.796875 -72.109375 C 44.828125 -70.585938 45.410156 -68.945312 45.546875 -67.1875 C 45.691406 -65.4375 45.382812 -63.863281 44.625 -62.46875 C 43.863281 -61.070312 42.644531 -60.257812 40.96875 -60.03125 C 39.101562 -59.769531 37.367188 -59.769531 35.765625 -60.03125 C 34.160156 -60.289062 32.757812 -60.335938 31.5625 -60.171875 C 30.164062 -59.972656 29.085938 -59.175781 28.328125 -57.78125 C 27.566406 -56.382812 27.253906 -53.648438 27.390625 -49.578125 C 27.484375 -46.472656 28.09375 -43.53125 29.21875 -40.75 C 30.34375 -37.976562 31.710938 -35.304688 33.328125 -32.734375 C 34.941406 -30.171875 36.554688 -27.601562 38.171875 -25.03125 C 39.785156 -22.46875 41.082031 -19.820312 42.0625 -17.09375 C 42.382812 -16.25 42.582031 -15.179688 42.65625 -13.890625 C 42.726562 -12.609375 42.460938 -11.316406 41.859375 -10.015625 C 41.253906 -8.710938 40.1875 -7.546875 38.65625 -6.515625 C 37.132812 -5.492188 34.90625 -4.78125 31.96875 -4.375 L 22.9375 -3.140625 C 20.132812 -2.753906 17.878906 -3.109375 16.171875 -4.203125 C 14.460938 -5.296875 13.269531 -6.796875 12.59375 -8.703125 C 11.914062 -10.617188 11.707031 -12.617188 11.96875 -14.703125 C 12.582031 -19.140625 13.125 -23.484375 13.59375 -27.734375 C 14.070312 -31.992188 14.40625 -35.785156 14.59375 -39.109375 C 14.789062 -42.429688 14.75 -44.859375 14.46875 -46.390625 C 13.757812 -51.054688 12.71875 -54.0625 11.34375 -55.40625 C 9.96875 -56.75 8.515625 -57.316406 6.984375 -57.109375 C 5.515625 -56.898438 4.046875 -56.40625 2.578125 -55.625 C 1.109375 -54.851562 -0.285156 -54.375 -1.609375 -54.1875 C -2.210938 -54.101562 -2.789062 -54.128906 -3.34375 -54.265625 Z M -3.34375 -54.265625 "/></g></g></g><g fill="#fcfdf2" fill-opacity="1"><g transform="translate(165.578006, 107.825546)"><g><path d="M -19.078125 -57.015625 C -20.285156 -57.921875 -21.132812 -59.128906 -21.625 -60.640625 C -22.113281 -62.148438 -22.035156 -63.632812 -21.390625 -65.09375 C -20.742188 -66.5625 -19.445312 -67.660156 -17.5 -68.390625 C -17.175781 -68.515625 -16.847656 -68.617188 -16.515625 -68.703125 C -16.191406 -68.785156 -15.863281 -68.859375 -15.53125 -68.921875 C -13.925781 -69.234375 -12.195312 -69.035156 -10.34375 -68.328125 C -8.488281 -67.617188 -6.632812 -66.671875 -4.78125 -65.484375 C -2.9375 -64.296875 -1.1875 -63.113281 0.46875 -61.9375 C 2.132812 -60.769531 3.578125 -59.800781 4.796875 -59.03125 C 6.015625 -58.257812 6.941406 -57.992188 7.578125 -58.234375 C 8.273438 -58.492188 8.898438 -59.375 9.453125 -60.875 C 10.003906 -62.382812 10.5625 -64.210938 11.125 -66.359375 C 11.6875 -68.503906 12.363281 -70.679688 13.15625 -72.890625 C 13.957031 -75.109375 14.914062 -77.070312 16.03125 -78.78125 C 17.15625 -80.5 18.570312 -81.675781 20.28125 -82.3125 C 21.226562 -82.664062 22.101562 -82.816406 22.90625 -82.765625 C 24.875 -82.703125 26.304688 -81.8125 27.203125 -80.09375 C 28.097656 -78.382812 28.304688 -76.144531 27.828125 -73.375 C 27.347656 -70.601562 26.03125 -67.585938 23.875 -64.328125 C 22.320312 -61.953125 21.054688 -59.460938 20.078125 -56.859375 C 19.097656 -54.265625 19.039062 -51.429688 19.90625 -48.359375 C 20.5625 -46.242188 21.703125 -44.015625 23.328125 -41.671875 C 24.960938 -39.328125 26.769531 -36.992188 28.75 -34.671875 C 30.738281 -32.359375 32.59375 -30.101562 34.3125 -27.90625 C 36.039062 -25.707031 37.320312 -23.628906 38.15625 -21.671875 C 38.988281 -19.722656 39.085938 -17.960938 38.453125 -16.390625 C 37.816406 -14.816406 36.113281 -13.507812 33.34375 -12.46875 L 17.53125 -6.5625 C 15.25 -5.707031 13.476562 -5.90625 12.21875 -7.15625 C 10.957031 -8.414062 10.007812 -10.367188 9.375 -13.015625 C 8.75 -15.660156 8.210938 -18.679688 7.765625 -22.078125 C 7.328125 -25.472656 6.800781 -28.945312 6.1875 -32.5 C 5.582031 -36.050781 4.660156 -39.285156 3.421875 -42.203125 C 2.484375 -44.523438 1.082031 -46.398438 -0.78125 -47.828125 C -2.644531 -49.253906 -4.707031 -50.4375 -6.96875 -51.375 C -9.238281 -52.320312 -11.441406 -53.207031 -13.578125 -54.03125 C -15.722656 -54.863281 -17.554688 -55.859375 -19.078125 -57.015625 Z M -19.078125 -57.015625 "/></g></g></g><g fill="#fcfdf2" fill-opacity="1"><g transform="translate(219.399935, 86.152949)"><g/></g></g></g></g><g transform="matrix(1, 0, 0, 1, 165, 228)"><g clip-path="url(#7cb1efbdfb)"><g fill="#fcfdf2" fill-opacity="1"><g transform="translate(5.997711, 55.826632)"><g><path d="M 25.75 -3.71875 L 10.546875 -6.21875 L 6.453125 1.0625 L 1.65625 0.265625 L 19.96875 -32.328125 L 25.21875 -31.46875 L 32.078125 5.28125 L 27.28125 4.484375 Z M 25.0625 -7.640625 L 21.640625 -26.296875 L 12.453125 -9.71875 Z M 25.0625 -7.640625 "/></g></g></g><g fill="#fcfdf2" fill-opacity="1"><g transform="translate(42.883724, 60.741364)"><g><path d="M 8.484375 -37.53125 L 8.515625 0 L 3.90625 0 L 3.875 -37.53125 Z M 8.484375 -37.53125 "/></g></g></g><g fill="#fcfdf2" fill-opacity="1"><g transform="translate(57.282658, 60.645922)"><g><path d="M 5.109375 -38.140625 L 8.484375 -0.765625 L 3.890625 -0.34375 L 0.515625 -37.71875 Z M 5.109375 -38.140625 "/></g></g></g><g fill="#fcfdf2" fill-opacity="1"><g transform="translate(72.556266, 59.65012)"><g><path d="M 20.625 -33.5 L 13.84375 10.140625 L 9.203125 11.25 L 11.421875 -3.03125 L -5.859375 -27.171875 L -0.875 -28.359375 L 12.828125 -8.5 L 16 -32.390625 Z M 20.625 -33.5 "/></g></g></g></g></g></svg>