<svg xmlns="http://www.w3.org/2000/svg" xmlns:xlink="http://www.w3.org/1999/xlink" width="500" zoomAndPan="magnify" viewBox="0 0 375 374.999991" height="500" preserveAspectRatio="xMidYMid meet" version="1.0"><defs><g/><clipPath id="7349fda825"><path d="M 43 113 L 333 113 L 333 282 L 43 282 Z M 43 113 " clip-rule="nonzero"/></clipPath><clipPath id="9c3a127a17"><path d="M 90.691406 37.5 L 352.398438 138.445312 L 284.382812 314.785156 L 22.675781 213.835938 Z M 90.691406 37.5 " clip-rule="nonzero"/></clipPath><clipPath id="1ed93b5a82"><path d="M 90.691406 37.5 L 352.398438 138.445312 L 284.382812 314.785156 L 22.675781 213.835938 Z M 90.691406 37.5 " clip-rule="nonzero"/></clipPath><clipPath id="669ef44961"><path d="M 330.597656 178.710938 C 337.109375 156.589844 325.984375 132.664062 304.980469 123.25 C 288.765625 115.925781 270.820312 118.644531 257.746094 128.476562 C 251.226562 133.339844 242.210938 132.957031 235.878906 127.777344 C 231.003906 123.753906 225.292969 120.359375 219.078125 117.964844 C 200.84375 110.929688 181.304688 113.152344 165.582031 122.4375 C 156.472656 127.851562 145.167969 127.539062 136.03125 122.226562 C 132.0625 119.863281 127.6875 117.9375 123.113281 116.53125 C 93.453125 107.351562 61.304688 122.203125 48.914062 150.625 C 34.796875 182.90625 50.578125 220.054688 83.105469 232.601562 C 96.570312 237.792969 110.699219 237.886719 123.390625 233.976562 C 136.230469 230.003906 149.953125 235.773438 156.039062 247.761719 C 163.160156 261.695312 175.570312 273.027344 191.84375 278.351562 C 221.757812 288.105469 254.75 273.222656 267.199219 244.34375 C 268.621094 240.964844 269.757812 237.714844 270.621094 234.238281 C 273.445312 222.597656 282.574219 213.738281 294.382812 211.511719 C 310.902344 208.480469 325.414062 196.46875 330.597656 178.710938 Z M 330.597656 178.710938 " clip-rule="nonzero"/></clipPath><clipPath id="9fd1243f25"><path d="M 130 91 L 158 91 L 158 119 L 130 119 Z M 130 91 " clip-rule="nonzero"/></clipPath><clipPath id="27800b77cd"><path d="M 90.691406 37.5 L 352.398438 138.445312 L 284.382812 314.785156 L 22.675781 213.835938 Z M 90.691406 37.5 " clip-rule="nonzero"/></clipPath><clipPath id="87c04eef98"><path d="M 90.691406 37.5 L 352.398438 138.445312 L 284.382812 314.785156 L 22.675781 213.835938 Z M 90.691406 37.5 " clip-rule="nonzero"/></clipPath><clipPath id="374ea47eee"><path d="M 156.476562 109.644531 C 156.164062 110.453125 155.773438 111.226562 155.308594 111.957031 C 154.847656 112.691406 154.316406 113.371094 153.71875 114 C 153.117188 114.628906 152.464844 115.191406 151.753906 115.691406 C 151.046875 116.191406 150.296875 116.617188 149.503906 116.96875 C 148.707031 117.320312 147.890625 117.589844 147.042969 117.78125 C 146.195312 117.972656 145.339844 118.078125 144.472656 118.097656 C 143.605469 118.117188 142.742188 118.054688 141.890625 117.90625 C 141.035156 117.757812 140.203125 117.527344 139.390625 117.214844 C 138.582031 116.90625 137.8125 116.515625 137.078125 116.050781 C 136.347656 115.585938 135.664062 115.058594 135.035156 114.457031 C 134.410156 113.859375 133.84375 113.207031 133.34375 112.496094 C 132.84375 111.789062 132.417969 111.035156 132.066406 110.242188 C 131.714844 109.449219 131.445312 108.628906 131.253906 107.785156 C 131.066406 106.9375 130.960938 106.082031 130.9375 105.214844 C 130.917969 104.347656 130.980469 103.484375 131.128906 102.628906 C 131.277344 101.777344 131.507812 100.945312 131.820312 100.132812 C 132.132812 99.324219 132.519531 98.554688 132.984375 97.820312 C 133.449219 97.085938 133.980469 96.40625 134.578125 95.777344 C 135.175781 95.148438 135.828125 94.585938 136.539062 94.085938 C 137.25 93.585938 138 93.160156 138.792969 92.808594 C 139.585938 92.457031 140.40625 92.1875 141.253906 91.996094 C 142.097656 91.808594 142.957031 91.703125 143.824219 91.679688 C 144.691406 91.660156 145.550781 91.722656 146.40625 91.871094 C 147.261719 92.019531 148.09375 92.25 148.902344 92.5625 C 149.710938 92.875 150.484375 93.261719 151.214844 93.726562 C 151.949219 94.191406 152.628906 94.722656 153.257812 95.320312 C 153.886719 95.917969 154.449219 96.570312 154.949219 97.28125 C 155.449219 97.988281 155.875 98.742188 156.226562 99.535156 C 156.578125 100.328125 156.847656 101.148438 157.039062 101.992188 C 157.230469 102.839844 157.335938 103.695312 157.355469 104.566406 C 157.378906 105.433594 157.3125 106.292969 157.164062 107.148438 C 157.015625 108.003906 156.789062 108.835938 156.476562 109.644531 Z M 156.476562 109.644531 " clip-rule="nonzero"/></clipPath><clipPath id="0e2a35bc19"><path d="M 216 89 L 233 89 L 233 106 L 216 106 Z M 216 89 " clip-rule="nonzero"/></clipPath><clipPath id="f480ca3975"><path d="M 90.691406 37.5 L 352.398438 138.445312 L 284.382812 314.785156 L 22.675781 213.835938 Z M 90.691406 37.5 " clip-rule="nonzero"/></clipPath><clipPath id="dae12e8a16"><path d="M 90.691406 37.5 L 352.398438 138.445312 L 284.382812 314.785156 L 22.675781 213.835938 Z M 90.691406 37.5 " clip-rule="nonzero"/></clipPath><clipPath id="10e1e742e6"><path d="M 231.601562 100.300781 C 231.414062 100.785156 231.183594 101.246094 230.90625 101.683594 C 230.628906 102.121094 230.3125 102.527344 229.957031 102.902344 C 229.597656 103.277344 229.207031 103.613281 228.785156 103.910156 C 228.363281 104.207031 227.914062 104.460938 227.441406 104.671875 C 226.96875 104.882812 226.476562 105.042969 225.972656 105.15625 C 225.46875 105.269531 224.957031 105.332031 224.441406 105.347656 C 223.921875 105.359375 223.410156 105.320312 222.898438 105.230469 C 222.386719 105.144531 221.890625 105.007812 221.410156 104.820312 C 220.925781 104.632812 220.464844 104.402344 220.027344 104.125 C 219.589844 103.847656 219.183594 103.53125 218.808594 103.175781 C 218.433594 102.816406 218.097656 102.425781 217.800781 102.003906 C 217.503906 101.582031 217.25 101.132812 217.039062 100.660156 C 216.828125 100.1875 216.667969 99.699219 216.554688 99.191406 C 216.441406 98.6875 216.378906 98.175781 216.363281 97.660156 C 216.351562 97.140625 216.390625 96.628906 216.480469 96.117188 C 216.566406 95.605469 216.703125 95.109375 216.890625 94.628906 C 217.078125 94.144531 217.308594 93.683594 217.585938 93.246094 C 217.863281 92.808594 218.179688 92.402344 218.535156 92.027344 C 218.894531 91.652344 219.285156 91.316406 219.707031 91.019531 C 220.128906 90.722656 220.578125 90.46875 221.050781 90.257812 C 221.523438 90.046875 222.011719 89.886719 222.519531 89.773438 C 223.023438 89.660156 223.535156 89.597656 224.050781 89.582031 C 224.570312 89.570312 225.082031 89.609375 225.59375 89.699219 C 226.101562 89.785156 226.601562 89.921875 227.082031 90.109375 C 227.566406 90.296875 228.027344 90.527344 228.464844 90.804688 C 228.902344 91.082031 229.308594 91.398438 229.683594 91.753906 C 230.054688 92.113281 230.394531 92.503906 230.691406 92.925781 C 230.988281 93.347656 231.242188 93.796875 231.453125 94.269531 C 231.664062 94.742188 231.824219 95.234375 231.9375 95.738281 C 232.050781 96.242188 232.113281 96.753906 232.125 97.269531 C 232.140625 97.789062 232.101562 98.300781 232.011719 98.8125 C 231.925781 99.324219 231.789062 99.820312 231.601562 100.300781 Z M 231.601562 100.300781 " clip-rule="nonzero"/></clipPath><clipPath id="0a1992a5eb"><path d="M 286 228 L 312 228 L 312 254 L 286 254 Z M 286 228 " clip-rule="nonzero"/></clipPath><clipPath id="1898158218"><path d="M 90.691406 37.5 L 352.398438 138.445312 L 284.382812 314.785156 L 22.675781 213.835938 Z M 90.691406 37.5 " clip-rule="nonzero"/></clipPath><clipPath id="f4a6b77df3"><path d="M 90.691406 37.5 L 352.398438 138.445312 L 284.382812 314.785156 L 22.675781 213.835938 Z M 90.691406 37.5 " clip-rule="nonzero"/></clipPath><clipPath id="6a7bb5e5fd"><path d="M 310.945312 245.390625 C 310.652344 246.152344 310.289062 246.878906 309.851562 247.570312 C 309.414062 248.257812 308.914062 248.898438 308.351562 249.492188 C 307.789062 250.082031 307.171875 250.613281 306.503906 251.082031 C 305.835938 251.554688 305.128906 251.953125 304.382812 252.285156 C 303.636719 252.617188 302.867188 252.871094 302.070312 253.050781 C 301.273438 253.226562 300.464844 253.328125 299.648438 253.347656 C 298.832031 253.367188 298.023438 253.308594 297.21875 253.167969 C 296.414062 253.027344 295.628906 252.8125 294.867188 252.519531 C 294.105469 252.222656 293.382812 251.859375 292.691406 251.421875 C 292 250.984375 291.359375 250.484375 290.769531 249.921875 C 290.179688 249.359375 289.648438 248.742188 289.175781 248.078125 C 288.707031 247.410156 288.304688 246.703125 287.976562 245.957031 C 287.644531 245.207031 287.390625 244.4375 287.210938 243.640625 C 287.03125 242.84375 286.933594 242.039062 286.914062 241.222656 C 286.890625 240.40625 286.953125 239.59375 287.089844 238.789062 C 287.230469 237.984375 287.449219 237.203125 287.742188 236.441406 C 288.035156 235.679688 288.402344 234.953125 288.835938 234.261719 C 289.273438 233.574219 289.773438 232.933594 290.335938 232.339844 C 290.902344 231.75 291.515625 231.21875 292.183594 230.75 C 292.851562 230.277344 293.558594 229.878906 294.304688 229.546875 C 295.050781 229.214844 295.824219 228.960938 296.621094 228.78125 C 297.414062 228.601562 298.222656 228.503906 299.039062 228.484375 C 299.855469 228.464844 300.664062 228.523438 301.46875 228.664062 C 302.273438 228.800781 303.058594 229.019531 303.820312 229.3125 C 304.582031 229.605469 305.308594 229.972656 305.996094 230.410156 C 306.6875 230.847656 307.328125 231.347656 307.917969 231.910156 C 308.511719 232.472656 309.039062 233.085938 309.511719 233.753906 C 309.980469 234.421875 310.382812 235.128906 310.710938 235.875 C 311.042969 236.621094 311.296875 237.394531 311.476562 238.191406 C 311.65625 238.988281 311.757812 239.792969 311.777344 240.609375 C 311.796875 241.425781 311.734375 242.238281 311.597656 243.042969 C 311.457031 243.847656 311.242188 244.628906 310.945312 245.390625 Z M 310.945312 245.390625 " clip-rule="nonzero"/></clipPath><clipPath id="ffb8854432"><rect x="0" width="107" y="0" height="102"/></clipPath><clipPath id="d12f4577fa"><rect x="0" width="215" y="0" height="130"/></clipPath><clipPath id="e4d1252358"><rect x="0" width="88" y="0" height="68"/></clipPath></defs><g clip-path="url(#7349fda825)"><g clip-path="url(#9c3a127a17)"><g clip-path="url(#1ed93b5a82)"><g clip-path="url(#669ef44961)"><path fill="#4b5ae4" d="M 73.949219 5.84375 L -25.894531 264.695312 L 297.953125 389.609375 L 397.796875 130.761719 Z M 73.949219 5.84375 " fill-opacity="1" fill-rule="nonzero"/></g></g></g></g><g clip-path="url(#9fd1243f25)"><g clip-path="url(#27800b77cd)"><g clip-path="url(#87c04eef98)"><g clip-path="url(#374ea47eee)"><path fill="#4b5ae4" d="M 134.34375 82.773438 L 122.03125 114.691406 L 153.949219 127.003906 L 166.261719 95.085938 Z M 134.34375 82.773438 " fill-opacity="1" fill-rule="nonzero"/></g></g></g></g><g clip-path="url(#0e2a35bc19)"><g clip-path="url(#f480ca3975)"><g clip-path="url(#dae12e8a16)"><g clip-path="url(#10e1e742e6)"><path fill="#4b5ae4" d="M 218.398438 84.269531 L 211.050781 103.3125 L 230.09375 110.660156 L 237.441406 91.617188 Z M 218.398438 84.269531 " fill-opacity="1" fill-rule="nonzero"/></g></g></g></g><g clip-path="url(#0a1992a5eb)"><g clip-path="url(#1898158218)"><g clip-path="url(#f4a6b77df3)"><g clip-path="url(#6a7bb5e5fd)"><path fill="#4b5ae4" d="M 290.117188 220.101562 L 278.53125 250.140625 L 308.570312 261.730469 L 320.15625 231.6875 Z M 290.117188 220.101562 " fill-opacity="1" fill-rule="nonzero"/></g></g></g></g><g transform="matrix(1, 0, 0, 1, 59, 131)"><g clip-path="url(#ffb8854432)"><g fill="#fcfdf2" fill-opacity="1"><g transform="translate(14.638469, 76.433391)"><g><path d="M 1.984375 -11.15625 C -0.117188 -14.15625 -1.875 -17.519531 -3.28125 -21.25 C -4.695312 -24.988281 -5.769531 -28.832031 -6.5 -32.78125 C -7.238281 -36.726562 -7.601562 -40.578125 -7.59375 -44.328125 C -7.59375 -48.078125 -7.21875 -51.421875 -6.46875 -54.359375 C -6.050781 -56.003906 -5.332031 -57.59375 -4.3125 -59.125 C -3.300781 -60.65625 -2.085938 -61.976562 -0.671875 -63.09375 C 0.742188 -64.207031 2.265625 -64.953125 3.890625 -65.328125 C 4.484375 -65.460938 4.859375 -65.546875 5.015625 -65.578125 C 5.179688 -65.617188 5.34375 -65.65625 5.5 -65.6875 C 5.664062 -65.726562 6.046875 -65.816406 6.640625 -65.953125 C 9.390625 -66.578125 11.875 -66.6875 14.09375 -66.28125 C 16.320312 -65.875 18.09375 -65.082031 19.40625 -63.90625 C 20.726562 -62.738281 21.320312 -61.316406 21.1875 -59.640625 C 21.144531 -58.554688 20.625 -57.726562 19.625 -57.15625 C 18.625 -56.582031 17.421875 -56.132812 16.015625 -55.8125 C 14.992188 -55.582031 13.972656 -55.394531 12.953125 -55.25 C 11.929688 -55.113281 10.988281 -54.945312 10.125 -54.75 C 9.375 -54.570312 8.753906 -54.351562 8.265625 -54.09375 C 7.785156 -53.84375 7.59375 -53.503906 7.6875 -53.078125 C 7.800781 -52.367188 8.367188 -52 9.390625 -51.96875 C 10.421875 -51.945312 11.648438 -52.023438 13.078125 -52.203125 C 14.515625 -52.390625 15.984375 -52.488281 17.484375 -52.5 C 18.984375 -52.507812 20.316406 -52.191406 21.484375 -51.546875 C 22.660156 -50.898438 23.441406 -49.710938 23.828125 -47.984375 C 24.160156 -46.523438 24.066406 -45.378906 23.546875 -44.546875 C 23.023438 -43.722656 22.234375 -43.078125 21.171875 -42.609375 C 20.117188 -42.140625 18.992188 -41.785156 17.796875 -41.546875 C 16.609375 -41.304688 15.460938 -41.03125 14.359375 -40.71875 C 13.265625 -40.40625 12.425781 -39.972656 11.84375 -39.421875 C 11.269531 -38.867188 11.097656 -38.082031 11.328125 -37.0625 C 11.785156 -35.050781 12.859375 -33.582031 14.546875 -32.65625 C 16.234375 -31.738281 18.3125 -31.5625 20.78125 -32.125 C 21.007812 -32.175781 21.242188 -32.226562 21.484375 -32.28125 C 21.722656 -32.34375 21.945312 -32.421875 22.15625 -32.515625 C 22.257812 -32.546875 22.390625 -32.578125 22.546875 -32.609375 C 22.710938 -32.648438 22.851562 -32.679688 22.96875 -32.703125 C 25.019531 -33.171875 26.890625 -32.929688 28.578125 -31.984375 C 30.265625 -31.035156 31.65625 -29.648438 32.75 -27.828125 C 33.84375 -26.003906 34.578125 -23.957031 34.953125 -21.6875 C 35.328125 -19.414062 35.226562 -17.179688 34.65625 -14.984375 C 34.082031 -12.785156 32.960938 -10.828125 31.296875 -9.109375 C 29.640625 -7.398438 27.300781 -6.203125 24.28125 -5.515625 L 16.765625 -3.8125 C 15.410156 -3.5 13.804688 -3.597656 11.953125 -4.109375 C 10.109375 -4.628906 8.296875 -5.492188 6.515625 -6.703125 C 4.734375 -7.921875 3.222656 -9.40625 1.984375 -11.15625 Z M 1.984375 -11.15625 "/></g></g></g><g fill="#fcfdf2" fill-opacity="1"><g transform="translate(49.075531, 67.99585)"><g><path d="M 13.140625 1.671875 C 11.128906 0.640625 9.382812 -0.945312 7.90625 -3.09375 C 6.425781 -5.238281 5.207031 -7.726562 4.25 -10.5625 C 3.300781 -13.40625 2.648438 -16.398438 2.296875 -19.546875 C 1.941406 -22.691406 1.882812 -25.757812 2.125 -28.75 C 2.613281 -34.769531 3.742188 -39.882812 5.515625 -44.09375 C 7.285156 -48.300781 9.601562 -51.488281 12.46875 -53.65625 C 15.34375 -55.820312 18.578125 -56.828125 22.171875 -56.671875 C 25.585938 -56.515625 28.445312 -55.515625 30.75 -53.671875 C 33.050781 -51.828125 34.914062 -49.5 36.34375 -46.6875 C 37.769531 -43.882812 38.796875 -40.898438 39.421875 -37.734375 C 40.046875 -34.578125 40.378906 -31.613281 40.421875 -28.84375 C 40.460938 -26.125 40.28125 -23.316406 39.875 -20.421875 C 39.46875 -17.535156 38.832031 -14.78125 37.96875 -12.15625 C 37.113281 -9.539062 36.019531 -7.28125 34.6875 -5.375 C 33.351562 -3.46875 31.78125 -2.085938 29.96875 -1.234375 C 33.507812 0.0859375 36.535156 2.125 39.046875 4.875 C 41.554688 7.625 43.269531 10.484375 44.1875 13.453125 C 44.863281 15.640625 44.8125 17.601562 44.03125 19.34375 C 43.257812 21.082031 42.0625 22.4375 40.4375 23.40625 C 38.8125 24.382812 37.09375 24.835938 35.28125 24.765625 C 33.957031 24.703125 32.660156 24.3125 31.390625 23.59375 C 30.117188 22.882812 29.019531 21.726562 28.09375 20.125 C 27.375 18.875 26.921875 17.578125 26.734375 16.234375 C 26.546875 14.898438 26.421875 13.59375 26.359375 12.3125 C 26.304688 11.039062 26.125 9.832031 25.8125 8.6875 C 25.507812 7.539062 24.851562 6.523438 23.84375 5.640625 C 22.726562 4.648438 21.515625 3.957031 20.203125 3.5625 C 18.890625 3.175781 17.625 2.882812 16.40625 2.6875 C 15.195312 2.5 14.109375 2.160156 13.140625 1.671875 Z M 16.09375 -36.5 C 15.90625 -34.6875 15.941406 -32.925781 16.203125 -31.21875 C 16.460938 -29.519531 17.019531 -28.09375 17.875 -26.9375 C 18.738281 -25.789062 19.914062 -25.160156 21.40625 -25.046875 C 22.789062 -24.929688 23.890625 -25.378906 24.703125 -26.390625 C 25.523438 -27.410156 26.109375 -28.742188 26.453125 -30.390625 C 26.804688 -32.035156 26.96875 -33.800781 26.9375 -35.6875 C 26.914062 -37.570312 26.691406 -39.367188 26.265625 -41.078125 C 25.847656 -42.785156 25.289062 -44.207031 24.59375 -45.34375 C 23.90625 -46.476562 23.0625 -47.070312 22.0625 -47.125 C 21.125 -47.226562 20.226562 -46.753906 19.375 -45.703125 C 18.53125 -44.660156 17.820312 -43.320312 17.25 -41.6875 C 16.675781 -40.050781 16.289062 -38.320312 16.09375 -36.5 Z M 16.09375 -36.5 "/></g></g></g></g></g><g transform="matrix(1, 0, 0, 1, 132, 120)"><g clip-path="url(#d12f4577fa)"><g fill="#fcfdf2" fill-opacity="1"><g transform="translate(16.780572, 86.471626)"><g><path d="M 3.9375 -14.375 C 4.207031 -17.757812 4.832031 -20.921875 5.8125 -23.859375 C 6.789062 -26.796875 7.867188 -29.597656 9.046875 -32.265625 C 10.222656 -34.941406 11.25 -37.554688 12.125 -40.109375 C 13 -42.671875 13.457031 -45.226562 13.5 -47.78125 C 13.539062 -50.238281 13.9375 -52.421875 14.6875 -54.328125 C 15.4375 -56.242188 16.46875 -57.691406 17.78125 -58.671875 C 19.101562 -59.660156 20.628906 -59.984375 22.359375 -59.640625 C 23.015625 -59.515625 23.738281 -59.234375 24.53125 -58.796875 C 25.320312 -58.359375 26.003906 -57.597656 26.578125 -56.515625 C 27.148438 -55.441406 27.34375 -53.851562 27.15625 -51.75 C 27.007812 -49.863281 26.71875 -47.765625 26.28125 -45.453125 C 25.851562 -43.140625 25.429688 -40.78125 25.015625 -38.375 C 24.597656 -35.976562 24.296875 -33.753906 24.109375 -31.703125 C 23.929688 -29.648438 23.976562 -27.945312 24.25 -26.59375 C 24.519531 -25.25 25.171875 -24.472656 26.203125 -24.265625 C 27.515625 -24.015625 28.660156 -24.664062 29.640625 -26.21875 C 30.617188 -27.769531 31.476562 -29.84375 32.21875 -32.4375 C 32.957031 -35.03125 33.585938 -37.796875 34.109375 -40.734375 C 34.640625 -43.671875 35.09375 -46.398438 35.46875 -48.921875 C 35.664062 -50.179688 36.046875 -51.375 36.609375 -52.5 C 37.171875 -53.632812 37.953125 -54.507812 38.953125 -55.125 C 39.953125 -55.75 41.207031 -55.914062 42.71875 -55.625 C 44.351562 -55.300781 45.460938 -54.414062 46.046875 -52.96875 C 46.640625 -51.519531 46.929688 -49.847656 46.921875 -47.953125 C 46.921875 -46.066406 46.78125 -44.222656 46.5 -42.421875 C 46.226562 -40.617188 46.015625 -39.164062 45.859375 -38.0625 C 45.453125 -34.875 45.191406 -31.796875 45.078125 -28.828125 C 44.972656 -25.859375 44.816406 -22.984375 44.609375 -20.203125 C 44.398438 -17.421875 44 -14.675781 43.40625 -11.96875 C 42.8125 -9.269531 41.828125 -6.566406 40.453125 -3.859375 C 39.140625 -1.234375 37.617188 0.722656 35.890625 2.015625 C 34.171875 3.304688 32.425781 4.128906 30.65625 4.484375 C 28.894531 4.847656 27.226562 4.957031 25.65625 4.8125 C 24.082031 4.675781 22.75 4.5 21.65625 4.28125 L 17.1875 3.390625 C 15.164062 2.992188 13.082031 2.101562 10.9375 0.71875 C 8.789062 -0.664062 7.03125 -2.59375 5.65625 -5.0625 C 4.28125 -7.53125 3.707031 -10.632812 3.9375 -14.375 Z M 3.9375 -14.375 "/></g></g></g><g fill="#fcfdf2" fill-opacity="1"><g transform="translate(59.96513, 94.09173)"><g><path d="M 6.890625 0.234375 C 5.234375 0.179688 3.832031 -0.539062 2.6875 -1.9375 C 1.539062 -3.332031 1.007812 -5.632812 1.09375 -8.84375 C 1.175781 -12.050781 2.253906 -16.390625 4.328125 -21.859375 C 5.367188 -24.535156 6.070312 -26.820312 6.4375 -28.71875 C 6.8125 -30.625 7.039062 -32.304688 7.125 -33.765625 C 7.207031 -35.234375 7.269531 -36.671875 7.3125 -38.078125 C 7.363281 -39.484375 7.523438 -41.015625 7.796875 -42.671875 C 7.929688 -43.503906 8.398438 -44.316406 9.203125 -45.109375 C 10.015625 -45.910156 11.335938 -46.28125 13.171875 -46.21875 C 14.367188 -46.175781 15.34375 -45.835938 16.09375 -45.203125 C 16.851562 -44.566406 17.382812 -43.859375 17.6875 -43.078125 C 18.039062 -42.117188 18.207031 -40.890625 18.1875 -39.390625 C 18.164062 -37.898438 18.238281 -36.046875 18.40625 -33.828125 C 18.570312 -31.609375 19.160156 -28.90625 20.171875 -25.71875 C 21.117188 -22.632812 21.9375 -19.53125 22.625 -16.40625 C 23.320312 -13.28125 23.648438 -10.414062 23.609375 -7.8125 C 23.578125 -5.21875 22.953125 -3.148438 21.734375 -1.609375 C 20.515625 -0.078125 18.46875 0.640625 15.59375 0.546875 Z M 13.015625 -49.21875 C 11.566406 -49.269531 10.335938 -49.769531 9.328125 -50.71875 C 8.316406 -51.675781 7.832031 -52.789062 7.875 -54.0625 C 7.914062 -55.382812 8.472656 -56.484375 9.546875 -57.359375 C 10.628906 -58.242188 11.894531 -58.660156 13.34375 -58.609375 C 14.820312 -58.554688 16.070312 -58.050781 17.09375 -57.09375 C 18.113281 -56.144531 18.601562 -55.007812 18.5625 -53.6875 C 18.519531 -52.414062 17.953125 -51.335938 16.859375 -50.453125 C 15.773438 -49.578125 14.492188 -49.164062 13.015625 -49.21875 Z M 13.015625 -49.21875 "/></g></g></g><g fill="#fcfdf2" fill-opacity="1"><g transform="translate(87.16159, 95.685169)"><g><path d="M -2.75 -44.546875 C -3.789062 -44.835938 -4.597656 -45.546875 -5.171875 -46.671875 C -5.753906 -47.796875 -6.046875 -49.054688 -6.046875 -50.453125 C -6.046875 -51.847656 -5.707031 -53.164062 -5.03125 -54.40625 C -4.351562 -55.644531 -3.300781 -56.550781 -1.875 -57.125 C -0.820312 -57.5625 0.203125 -57.890625 1.203125 -58.109375 C 2.210938 -58.328125 3.648438 -58.566406 5.515625 -58.828125 C 6.273438 -58.929688 7.09375 -59.039062 7.96875 -59.15625 C 8.851562 -59.28125 9.875 -59.421875 11.03125 -59.578125 C 12.394531 -59.765625 13.71875 -59.957031 15 -60.15625 C 16.28125 -60.363281 17.414062 -60.535156 18.40625 -60.671875 C 19.175781 -60.773438 19.914062 -60.875 20.625 -60.96875 C 21.332031 -61.070312 21.992188 -61.164062 22.609375 -61.25 C 24.859375 -61.5625 26.753906 -61.765625 28.296875 -61.859375 C 29.847656 -61.960938 31.234375 -61.867188 32.453125 -61.578125 C 33.953125 -61.234375 35.117188 -60.429688 35.953125 -59.171875 C 36.785156 -57.921875 37.257812 -56.578125 37.375 -55.140625 C 37.5 -53.710938 37.25 -52.425781 36.625 -51.28125 C 36 -50.132812 35 -49.46875 33.625 -49.28125 C 32.09375 -49.070312 30.671875 -49.066406 29.359375 -49.265625 C 28.046875 -49.472656 26.894531 -49.507812 25.90625 -49.375 C 24.75 -49.21875 23.859375 -48.566406 23.234375 -47.421875 C 22.617188 -46.273438 22.367188 -44.039062 22.484375 -40.71875 C 22.554688 -38.144531 23.054688 -35.71875 23.984375 -33.4375 C 24.910156 -31.164062 26.035156 -28.976562 27.359375 -26.875 C 28.679688 -24.769531 30.003906 -22.660156 31.328125 -20.546875 C 32.648438 -18.429688 33.71875 -16.265625 34.53125 -14.046875 C 34.78125 -13.347656 34.9375 -12.472656 35 -11.421875 C 35.070312 -10.367188 34.859375 -9.304688 34.359375 -8.234375 C 33.867188 -7.160156 32.992188 -6.203125 31.734375 -5.359375 C 30.484375 -4.515625 28.648438 -3.925781 26.234375 -3.59375 L 18.84375 -2.578125 C 16.539062 -2.265625 14.679688 -2.554688 13.265625 -3.453125 C 11.859375 -4.347656 10.878906 -5.582031 10.328125 -7.15625 C 9.773438 -8.726562 9.609375 -10.367188 9.828125 -12.078125 C 10.328125 -15.722656 10.769531 -19.285156 11.15625 -22.765625 C 11.550781 -26.253906 11.828125 -29.363281 11.984375 -32.09375 C 12.140625 -34.832031 12.101562 -36.828125 11.875 -38.078125 C 11.300781 -41.910156 10.445312 -44.375 9.3125 -45.46875 C 8.1875 -46.570312 6.988281 -47.039062 5.71875 -46.875 C 4.507812 -46.707031 3.304688 -46.304688 2.109375 -45.671875 C 0.910156 -45.035156 -0.234375 -44.640625 -1.328125 -44.484375 C -1.816406 -44.421875 -2.289062 -44.441406 -2.75 -44.546875 Z M -2.75 -44.546875 "/></g></g></g><g fill="#fcfdf2" fill-opacity="1"><g transform="translate(135.997596, 88.513418)"><g><path d="M -15.640625 -46.796875 C -16.628906 -47.546875 -17.328125 -48.539062 -17.734375 -49.78125 C -18.148438 -51.019531 -18.09375 -52.238281 -17.5625 -53.4375 C -17.03125 -54.632812 -15.960938 -55.53125 -14.359375 -56.125 C -14.097656 -56.226562 -13.832031 -56.316406 -13.5625 -56.390625 C -13.289062 -56.460938 -13.019531 -56.523438 -12.75 -56.578125 C -11.425781 -56.816406 -10.003906 -56.644531 -8.484375 -56.0625 C -6.960938 -55.488281 -5.445312 -54.71875 -3.9375 -53.75 C -2.425781 -52.78125 -0.988281 -51.8125 0.375 -50.84375 C 1.75 -49.875 2.9375 -49.078125 3.9375 -48.453125 C 4.945312 -47.828125 5.707031 -47.609375 6.21875 -47.796875 C 6.800781 -48.015625 7.316406 -48.738281 7.765625 -49.96875 C 8.210938 -51.207031 8.664062 -52.707031 9.125 -54.46875 C 9.582031 -56.238281 10.140625 -58.023438 10.796875 -59.828125 C 11.453125 -61.640625 12.238281 -63.253906 13.15625 -64.671875 C 14.082031 -66.085938 15.242188 -67.054688 16.640625 -67.578125 C 17.421875 -67.867188 18.144531 -67.984375 18.8125 -67.921875 C 20.425781 -67.890625 21.597656 -67.164062 22.328125 -65.75 C 23.054688 -64.34375 23.226562 -62.5 22.84375 -60.21875 C 22.46875 -57.945312 21.382812 -55.476562 19.59375 -52.8125 C 18.3125 -50.851562 17.269531 -48.804688 16.46875 -46.671875 C 15.675781 -44.535156 15.628906 -42.210938 16.328125 -39.703125 C 16.878906 -37.953125 17.820312 -36.117188 19.15625 -34.203125 C 20.488281 -32.285156 21.972656 -30.375 23.609375 -28.46875 C 25.242188 -26.570312 26.765625 -24.71875 28.171875 -22.90625 C 29.585938 -21.09375 30.640625 -19.390625 31.328125 -17.796875 C 32.015625 -16.203125 32.097656 -14.753906 31.578125 -13.453125 C 31.054688 -12.160156 29.648438 -11.085938 27.359375 -10.234375 L 14.390625 -5.390625 C 12.523438 -4.691406 11.070312 -4.859375 10.03125 -5.890625 C 9 -6.921875 8.222656 -8.519531 7.703125 -10.6875 C 7.191406 -12.851562 6.75 -15.332031 6.375 -18.125 C 6.007812 -20.914062 5.578125 -23.765625 5.078125 -26.671875 C 4.578125 -29.585938 3.820312 -32.25 2.8125 -34.65625 C 2.03125 -36.539062 0.878906 -38.070312 -0.640625 -39.25 C -2.171875 -40.425781 -3.863281 -41.398438 -5.71875 -42.171875 C -7.570312 -42.953125 -9.378906 -43.675781 -11.140625 -44.34375 C -12.898438 -45.019531 -14.398438 -45.835938 -15.640625 -46.796875 Z M -15.640625 -46.796875 "/></g></g></g><g fill="#fcfdf2" fill-opacity="1"><g transform="translate(180.171916, 70.72563)"><g/></g></g></g></g><g transform="matrix(1, 0, 0, 1, 169, 209)"><g clip-path="url(#e4d1252358)"><g fill="#fcfdf2" fill-opacity="1"><g transform="translate(4.955798, 46.297292)"><g><path d="M 21.140625 -3.078125 L 8.640625 -5.125 L 5.296875 0.875 L 1.359375 0.21875 L 16.390625 -26.53125 L 20.703125 -25.8125 L 26.328125 4.328125 L 22.390625 3.6875 Z M 20.5625 -6.28125 L 17.765625 -21.578125 L 10.21875 -7.984375 Z M 20.5625 -6.28125 "/></g></g></g><g fill="#fcfdf2" fill-opacity="1"><g transform="translate(35.229961, 50.331066)"><g><path d="M 6.984375 -30.796875 L 7 0 L 3.203125 0 L 3.1875 -30.796875 Z M 6.984375 -30.796875 "/></g></g></g><g fill="#fcfdf2" fill-opacity="1"><g transform="translate(47.0479, 50.252725)"><g><path d="M 4.203125 -31.296875 L 6.96875 -0.625 L 3.1875 -0.28125 L 0.421875 -30.953125 Z M 4.203125 -31.296875 "/></g></g></g><g fill="#fcfdf2" fill-opacity="1"><g transform="translate(59.583707, 49.435399)"><g><path d="M 16.9375 -27.5 L 11.359375 8.328125 L 7.5625 9.234375 L 9.375 -2.5 L -4.8125 -22.296875 L -0.71875 -23.28125 L 10.53125 -6.953125 L 13.125 -26.59375 Z M 16.9375 -27.5 "/></g></g></g></g></g></svg>